<?xml version="1.0" encoding="utf-8"?>
<!-- Generator: Adobe Illustrator 17.0.0, SVG Export Plug-In . SVG Version: 6.00 Build 0)  -->
<!DOCTYPE svg PUBLIC "-//W3C//DTD SVG 1.1//EN" "http://www.w3.org/Graphics/SVG/1.1/DTD/svg11.dtd">
<svg version="1.1" id="Layer_1" xmlns="http://www.w3.org/2000/svg" xmlns:xlink="http://www.w3.org/1999/xlink" x="0px" y="0px"
	 width="60px" height="60px" viewBox="0 0 60 60" enable-background="new 0 0 60 60" xml:space="preserve">
<g>
	<path fill="#FFFFFF" d="M30,60C14.058,60,1.087,47.03,1.087,31.087S14.058,2.175,30,2.175c15.942,0,28.913,12.97,28.913,28.913
		S45.942,60,30,60z M30,3.585c-15.165,0-27.502,12.337-27.502,27.502S14.835,58.59,30,58.59s27.502-12.337,27.502-27.502
		S45.165,3.585,30,3.585z"/>
	<path fill="#FFFFFF" d="M37.79,18.403H22.216c-2.704,0-4.906,2.199-4.906,4.903v5.177v10.386c0,2.704,2.202,4.903,4.906,4.903
		H37.79c2.704,0,4.907-2.199,4.907-4.903V28.483v-5.177C42.697,20.602,40.494,18.403,37.79,18.403z M39.197,21.328l0.561-0.003
		v0.559v3.74l-4.288,0.016l-0.015-4.301L39.197,21.328z M26.381,28.483c0.811-1.125,2.131-1.862,3.622-1.862
		c1.492,0,2.81,0.738,3.622,1.862c0.53,0.734,0.848,1.631,0.848,2.605c0,2.463-2.006,4.464-4.47,4.464
		c-2.465,0-4.469-2.001-4.469-4.464C25.535,30.114,25.852,29.217,26.381,28.483z M40.223,38.869c0,1.341-1.091,2.43-2.433,2.43
		H22.216c-1.342,0-2.432-1.089-2.432-2.43V28.483h3.79c-0.326,0.806-0.512,1.684-0.512,2.605c0,3.826,3.114,6.937,6.942,6.937
		c3.828,0,6.941-3.111,6.941-6.937c0-0.921-0.186-1.799-0.511-2.605h3.79V38.869z"/>
</g>
</svg>
