<?xml version="1.0" encoding="utf-8"?>
<!-- Generator: Adobe Illustrator 17.0.0, SVG Export Plug-In . SVG Version: 6.00 Build 0)  -->
<!DOCTYPE svg PUBLIC "-//W3C//DTD SVG 1.1//EN" "http://www.w3.org/Graphics/SVG/1.1/DTD/svg11.dtd">
<svg version="1.1" id="Layer_1" xmlns="http://www.w3.org/2000/svg" xmlns:xlink="http://www.w3.org/1999/xlink" x="0px" y="0px"
	 width="60px" height="60px" viewBox="0 0 60 60" enable-background="new 0 0 60 60" xml:space="preserve">
<g>
	<path fill="#FFFFFF" d="M29.486,57.534c-15.802,0-28.658-12.856-28.658-28.659c0-15.802,12.856-28.657,28.658-28.657
		c15.802,0,28.658,12.856,28.658,28.657C58.144,44.678,45.288,57.534,29.486,57.534z M29.486,1.616
		c-15.031,0-27.26,12.229-27.26,27.259c0,15.032,12.229,27.261,27.26,27.261s27.26-12.229,27.26-27.261
		C56.746,13.845,44.517,1.616,29.486,1.616z"/>
	<path fill-rule="evenodd" clip-rule="evenodd" fill="#FFFFFF" d="M41.8,26.343c-0.164-0.808-0.412-1.604-0.733-2.365
		c-0.315-0.747-0.703-1.465-1.156-2.137c-0.45-0.666-0.968-1.292-1.535-1.861c-0.569-0.57-1.193-1.087-1.861-1.536
		c-0.67-0.456-1.39-0.845-2.133-1.16c-0.76-0.32-1.557-0.57-2.365-0.733c-0.827-0.17-1.68-0.257-2.531-0.257
		c-0.851,0-1.704,0.087-2.532,0.257c-0.808,0.163-1.603,0.413-2.363,0.733c-0.743,0.316-1.463,0.704-2.136,1.16
		c-0.667,0.449-1.289,0.966-1.859,1.536c-0.569,0.569-1.084,1.195-1.534,1.861c-0.455,0.672-0.845,1.39-1.16,2.137
		c-0.32,0.76-0.568,1.557-0.734,2.365c-0.169,0.827-0.254,1.68-0.254,2.532c0,0.854,0.085,1.707,0.254,2.535
		c0.166,0.808,0.414,1.604,0.734,2.363c0.315,0.746,0.705,1.467,1.16,2.138c0.45,0.667,0.965,1.291,1.534,1.861
		c0.57,0.569,1.193,1.085,1.859,1.534c0.673,0.454,1.393,0.845,2.136,1.16c0.76,0.321,1.555,0.567,2.363,0.733
		c0.829,0.171,1.681,0.257,2.532,0.257c0.851,0,1.704-0.086,2.531-0.257c0.807-0.167,1.605-0.412,2.365-0.733
		c0.743-0.315,1.463-0.706,2.133-1.16c0.668-0.45,1.292-0.966,1.861-1.534c0.567-0.57,1.085-1.195,1.535-1.861
		c0.453-0.671,0.842-1.392,1.156-2.138c0.321-0.759,0.569-1.556,0.733-2.363c0.173-0.828,0.258-1.681,0.258-2.535
		C42.058,28.023,41.973,27.17,41.8,26.343z M40.219,28.769c-0.156-0.034-3.789-0.817-7.479-0.353
		c-0.074-0.183-0.151-0.369-0.23-0.554c-0.225-0.526-0.465-1.046-0.714-1.559c4.238-1.732,5.959-4.223,5.979-4.252
		C39.284,23.881,40.192,26.219,40.219,28.769z M36.577,20.813c-0.027,0.042-1.556,2.371-5.61,3.891
		c-1.835-3.375-3.852-6.056-4.013-6.269c0.812-0.196,1.66-0.304,2.531-0.304C32.203,18.131,34.685,19.146,36.577,20.813z
		 M26.913,18.443c0,0.002-0.001,0.003-0.001,0.003s-0.014,0.003-0.034,0.007C26.89,18.449,26.901,18.448,26.913,18.443z
		 M24.904,19.159c0.143,0.191,2.128,2.885,3.986,6.19c-5.154,1.371-9.631,1.317-9.912,1.312
		C19.677,23.333,21.909,20.574,24.904,19.159z M18.748,28.875c0-0.115,0.005-0.227,0.009-0.339
		c0.189,0.003,5.496,0.124,11.024-1.532c0.307,0.602,0.601,1.215,0.871,1.827c-0.145,0.039-0.283,0.082-0.423,0.128
		c-5.794,1.874-8.732,7.091-8.732,7.091s0.003,0.003,0.003,0.005C19.79,34.153,18.748,31.635,18.748,28.875z M29.486,39.621
		c-2.598,0-4.982-0.925-6.84-2.463c0.141,0.115,0.242,0.188,0.242,0.188s2.056-4.492,8.425-6.712
		c0.025-0.008,0.048-0.016,0.07-0.023c1.511,3.929,2.136,7.219,2.293,8.159C32.39,39.317,30.972,39.621,29.486,39.621z
		 M35.485,37.788c-0.109-0.649-0.683-3.803-2.088-7.675c3.465-0.555,6.467,0.397,6.689,0.47
		C39.609,33.576,37.896,36.158,35.485,37.788z"/>
</g>
</svg>
