<?xml version="1.0" encoding="utf-8"?>
<!-- Generator: Adobe Illustrator 17.0.0, SVG Export Plug-In . SVG Version: 6.00 Build 0)  -->
<!DOCTYPE svg PUBLIC "-//W3C//DTD SVG 1.1//EN" "http://www.w3.org/Graphics/SVG/1.1/DTD/svg11.dtd">
<svg version="1.1" id="Layer_1" xmlns="http://www.w3.org/2000/svg" xmlns:xlink="http://www.w3.org/1999/xlink" x="0px" y="0px"
	 width="60px" height="60px" viewBox="0 0 60 60" enable-background="new 0 0 60 60" xml:space="preserve">
<g>
	<path fill="#FFFFFF" d="M29.485,59.368C13.227,59.368,0,46.142,0,29.884S13.227,0.4,29.485,0.4
		c16.257,0,29.483,13.226,29.483,29.484S45.742,59.368,29.485,59.368z M29.485,1.838C14.02,1.838,1.438,14.42,1.438,29.884
		S14.02,57.93,29.485,57.93c15.464,0,28.045-12.581,28.045-28.046S44.949,1.838,29.485,1.838z"/>
	<path fill="#FFFFFF" d="M42.428,23.256c-0.953,0.422-1.977,0.708-3.051,0.836c1.098-0.657,1.94-1.697,2.335-2.937
		c-1.027,0.608-2.162,1.05-3.374,1.287c-0.966-1.032-2.348-1.677-3.876-1.677c-2.932,0-5.31,2.379-5.31,5.311
		c0,0.417,0.045,0.821,0.137,1.21c-4.413-0.222-8.326-2.334-10.949-5.55c-0.457,0.787-0.718,1.699-0.718,2.672
		c0,1.841,0.938,3.467,2.362,4.421c-0.869-0.027-1.689-0.268-2.407-0.663v0.065c0,2.575,1.832,4.721,4.262,5.208
		c-0.445,0.125-0.914,0.187-1.4,0.187c-0.342,0-0.675-0.032-0.999-0.094c0.676,2.11,2.636,3.646,4.961,3.687
		c-1.818,1.426-4.11,2.274-6.596,2.274c-0.428,0-0.852-0.024-1.267-0.073c2.35,1.506,5.143,2.385,8.141,2.385
		c9.772,0,15.112-8.092,15.112-15.112c0-0.231-0.004-0.461-0.015-0.687C40.817,25.256,41.719,24.32,42.428,23.256"/>
</g>
</svg>
